<svg id="Layer_1" data-name="Layer 1" xmlns="http://www.w3.org/2000/svg" viewBox="0 0 131 28"><defs><style>.cls-1{fill:#141738;}.cls-2{fill:#f60;}</style></defs><title>outlier-logo</title><path class="cls-1" d="M42.65,7.07c.29-.05.63-.09,1-.12s.69,0,1,0,.62,0,1,0,.71.07,1,.12v11.2A11.72,11.72,0,0,0,47,21.44a4.47,4.47,0,0,0,1.07,2,3.81,3.81,0,0,0,1.76,1,9.07,9.07,0,0,0,2.39.28,11.72,11.72,0,0,0,3.47-.44V7.07c.29-.05.62-.09,1-.12s.68,0,1,0,.62,0,1,0,.68.07,1,.12V26.88c-.93.27-2,.52-3.33.76a21.91,21.91,0,0,1-4,.36,19,19,0,0,1-3.69-.34,6.6,6.6,0,0,1-5.12-4.28,13.33,13.33,0,0,1-.76-4.95Z"/><path class="cls-1" d="M87.93,7.07c.29-.05.62-.09,1-.12s.68,0,1,0,.62,0,1,0,.69.07,1,.12V21.34A5.9,5.9,0,0,0,92,23.1a2.24,2.24,0,0,0,.54,1,1.49,1.49,0,0,0,.79.44,4.4,4.4,0,0,0,1,.1c.24,0,.51,0,.82,0a4.63,4.63,0,0,0,.77-.12,12.1,12.1,0,0,1,.36,3,5.3,5.3,0,0,1-1.35.26c-.53,0-1,.06-1.48.06a7.77,7.77,0,0,1-2.15-.28,4.46,4.46,0,0,1-1.75-.92,4.19,4.19,0,0,1-1.2-1.71,7.17,7.17,0,0,1-.44-2.67Z"/><path class="cls-1" d="M101.84,18.27a6.75,6.75,0,0,0,1.74,4.91,6.9,6.9,0,0,0,4.88,1.55,14.52,14.52,0,0,0,5.38-1,5.65,5.65,0,0,1,.52,1.46,8.39,8.39,0,0,1,.24,1.69,13,13,0,0,1-2.89.84,19.66,19.66,0,0,1-3.49.28,13.12,13.12,0,0,1-4.78-.78,8.38,8.38,0,0,1-5.18-5.54,14.26,14.26,0,0,1-.6-4.25,14.83,14.83,0,0,1,.58-4.24A9.4,9.4,0,0,1,100,9.76a8.57,8.57,0,0,1,3-2.31,10,10,0,0,1,4.29-.86,8.91,8.91,0,0,1,3.7.72,7.51,7.51,0,0,1,2.68,2,8.73,8.73,0,0,1,1.63,3,12.31,12.31,0,0,1,.56,3.77c0,.37,0,.76,0,1.18s-.06.76-.08,1.05ZM112,15.32a7.51,7.51,0,0,0-.3-2.13,5.39,5.39,0,0,0-.88-1.78,4.16,4.16,0,0,0-1.47-1.21,4.58,4.58,0,0,0-2.13-.46,4.68,4.68,0,0,0-3.73,1.48,7.26,7.26,0,0,0-1.58,4.1Z"/><path class="cls-1" d="M119.74,7.07l.84-.12a7.39,7.39,0,0,1,.84,0,8.44,8.44,0,0,1,.87,0,8,8,0,0,1,.8.12c.08.4.16.92.24,1.57a14.16,14.16,0,0,1,.12,1.66A8.21,8.21,0,0,1,125.66,8a5.83,5.83,0,0,1,3.53-1l.66,0a4.33,4.33,0,0,1,.58.06,5.79,5.79,0,0,1,.11.76,7.33,7.33,0,0,1,0,.83c0,.32,0,.66-.05,1s-.09.68-.14,1a2.48,2.48,0,0,0-.66-.08h-.54a6.92,6.92,0,0,0-2,.3,4.31,4.31,0,0,0-1.76,1.05A5.2,5.2,0,0,0,124.15,14a10.31,10.31,0,0,0-.46,3.39V27.52c-.29.05-.62.09-1,.12s-.68,0-1,0-.61,0-1,0-.7-.07-1-.12Z"/><path class="cls-1" d="M28.84,6.59A10.71,10.71,0,1,0,39.54,17.3,10.71,10.71,0,0,0,28.84,6.59m0,17.63a6.92,6.92,0,1,1,6.92-6.92,6.92,6.92,0,0,1-6.92,6.92"/><path class="cls-1" d="M91.84,1.17V.48c-.29,0-.62-.09-1-.12s-.68,0-1,0-.61,0-1,0-.69.07-1,.12V3.64c.29,0,.62.09,1,.12s.68,0,1,0,.62,0,1,0,.69-.07,1-.12Z"/><path class="cls-1" d="M73.34,24.45a4.63,4.63,0,0,1-.77.12c-.31,0-.58,0-.82,0a4.4,4.4,0,0,1-1-.1,1.55,1.55,0,0,1-.8-.44,2.34,2.34,0,0,1-.53-1,5.9,5.9,0,0,1-.2-1.76V9.74h4.1c0-.26.09-.53.12-.8s0-.54,0-.83a7,7,0,0,0-.16-1.52H69.22V.48c-.29,0-.61-.09-1-.12s-.69,0-1,0-.62,0-1,0-.68.07-1,.12V6.59h-2.5c0,.27-.09.53-.12.8s0,.54,0,.84a9.49,9.49,0,0,0,.06.95h0v.05l.09.51h2.51V22.22a7.17,7.17,0,0,0,.44,2.67A4.26,4.26,0,0,0,67,26.6a4.5,4.5,0,0,0,1.76.92,7.77,7.77,0,0,0,2.15.28c.45,0,.94,0,1.48-.06a5.3,5.3,0,0,0,1.35-.26,12.1,12.1,0,0,0-.36-3"/><path class="cls-1" d="M77.33.16c.29,0,.62-.09,1-.12s.68,0,1,0,.62,0,1,0,.68.07,1,.12V21.34a5.9,5.9,0,0,0,.2,1.76,2.34,2.34,0,0,0,.53,1,1.55,1.55,0,0,0,.8.44,4.4,4.4,0,0,0,1,.1,8.1,8.1,0,0,0,.81,0,3.77,3.77,0,0,0,.78-.12,12.1,12.1,0,0,1,.36,3,5.3,5.3,0,0,1-1.35.26c-.54,0-1,.06-1.48.06a7.77,7.77,0,0,1-2.15-.28A4.5,4.5,0,0,1,79,26.6a4.26,4.26,0,0,1-1.19-1.71,7,7,0,0,1-.44-2.67Z"/><path class="cls-2" d="M28.84,20.25a2.8,2.8,0,1,1,2.79-2.79,2.79,2.79,0,0,1-2.79,2.79"/><path class="cls-1" d="M11.47,20.25a2.8,2.8,0,1,1,2.79-2.79,2.8,2.8,0,0,1-2.79,2.79"/><path class="cls-1" d="M2.78,20.25a2.8,2.8,0,1,1,2.8-2.79,2.79,2.79,0,0,1-2.8,2.79"/></svg>